<svg width="21" height="20" viewBox="0 0 21 20" fill="none" xmlns="http://www.w3.org/2000/svg">
<path d="M1.125 10C1.125 14.0937 3.75 17.5625 7.375 18.8437V1.15625C3.75 2.4375 1.125 5.90625 1.125 10Z" fill="#83BF4F"/>
<path d="M19.875 10C19.875 5.90625 17.2812 2.4375 13.625 1.15625V18.8437C17.2812 17.5625 19.875 14.0937 19.875 10Z" fill="#83BF4F"/>
<path d="M7.375 18.8437C8.34375 19.1875 9.40625 19.375 10.5 19.375C11.5938 19.375 12.6563 19.1875 13.625 18.8437V1.15625C12.6563 0.8125 11.5938 0.625 10.5 0.625C9.40625 0.625 8.34375 0.8125 7.375 1.15625V18.8437Z" fill="#F9F9F9"/>
</svg>
