<svg width="96" height="30" viewBox="0 0 96 30" fill="none" xmlns="http://www.w3.org/2000/svg">
<path d="M14.4531 0.585938V29.0234H8.61328V0.585938H14.4531ZM23.2031 0.585938V5.17578H0V0.585938H23.2031Z" fill="#0D2017"/>
<path d="M34.6289 24.2578V14.8438C34.6289 14.1667 34.5182 13.5872 34.2969 13.1055C34.0755 12.6107 33.7305 12.2266 33.2617 11.9531C32.806 11.6797 32.2135 11.543 31.4844 11.543C30.8594 11.543 30.319 11.6536 29.8633 11.875C29.4076 12.0833 29.056 12.3893 28.8086 12.793C28.5612 13.1836 28.4375 13.6458 28.4375 14.1797H22.8125C22.8125 13.2812 23.0208 12.4284 23.4375 11.6211C23.8542 10.8138 24.4596 10.1042 25.2539 9.49219C26.0482 8.86719 26.9922 8.37891 28.0859 8.02734C29.1927 7.67578 30.4297 7.5 31.7969 7.5C33.4375 7.5 34.8958 7.77344 36.1719 8.32031C37.4479 8.86719 38.4505 9.6875 39.1797 10.7812C39.9219 11.875 40.293 13.2422 40.293 14.8828V23.9258C40.293 25.0846 40.3646 26.0352 40.5078 26.7773C40.651 27.5065 40.8594 28.1445 41.1328 28.6914V29.0234H35.4492C35.1758 28.4505 34.9674 27.7344 34.8242 26.875C34.694 26.0026 34.6289 25.1302 34.6289 24.2578ZM35.3711 16.1523L35.4102 19.3359H32.2656C31.5234 19.3359 30.8789 19.4206 30.332 19.5898C29.7852 19.7591 29.3359 20 28.9844 20.3125C28.6328 20.612 28.3724 20.9635 28.2031 21.3672C28.0469 21.7708 27.9688 22.2135 27.9688 22.6953C27.9688 23.1771 28.0794 23.6133 28.3008 24.0039C28.5221 24.3815 28.8411 24.681 29.2578 24.9023C29.6745 25.1107 30.1628 25.2148 30.7227 25.2148C31.569 25.2148 32.3047 25.0456 32.9297 24.707C33.5547 24.3685 34.0365 23.9518 34.375 23.457C34.7266 22.9622 34.9089 22.4935 34.9219 22.0508L36.4062 24.4336C36.1979 24.9674 35.9115 25.5208 35.5469 26.0938C35.1953 26.6667 34.7461 27.207 34.1992 27.7148C33.6523 28.2096 32.9948 28.6198 32.2266 28.9453C31.4583 29.2578 30.5469 29.4141 29.4922 29.4141C28.151 29.4141 26.9336 29.1471 25.8398 28.6133C24.7591 28.0664 23.8997 27.3177 23.2617 26.3672C22.6367 25.4036 22.3242 24.3099 22.3242 23.0859C22.3242 21.9792 22.5326 20.9961 22.9492 20.1367C23.3659 19.2773 23.9779 18.5547 24.7852 17.9688C25.6055 17.3698 26.6276 16.9206 27.8516 16.6211C29.0755 16.3086 30.4948 16.1523 32.1094 16.1523H35.3711Z" fill="#0D2017"/>
<path d="M49.1602 7.89062L52.6562 14.3164L56.25 7.89062H62.2461L56.2695 18.2227L62.5195 29.0234H56.5039L52.6953 22.2266L48.8867 29.0234H42.8711L49.1211 18.2227L43.1445 7.89062H49.1602Z" fill="#0D2017"/>
<path d="M63.418 18.6719V18.2617C63.418 16.7122 63.6393 15.2865 64.082 13.9844C64.5247 12.6693 65.1693 11.5299 66.0156 10.5664C66.862 9.60286 67.9036 8.85417 69.1406 8.32031C70.3776 7.77344 71.7969 7.5 73.3984 7.5C75 7.5 76.4258 7.77344 77.6758 8.32031C78.9258 8.85417 79.974 9.60286 80.8203 10.5664C81.6797 11.5299 82.3307 12.6693 82.7734 13.9844C83.2161 15.2865 83.4375 16.7122 83.4375 18.2617V18.6719C83.4375 20.2083 83.2161 21.6341 82.7734 22.9492C82.3307 24.2513 81.6797 25.3906 80.8203 26.3672C79.974 27.3307 78.9323 28.0794 77.6953 28.6133C76.4583 29.1471 75.0391 29.4141 73.4375 29.4141C71.8359 29.4141 70.4102 29.1471 69.1602 28.6133C67.9232 28.0794 66.875 27.3307 66.0156 26.3672C65.1693 25.3906 64.5247 24.2513 64.082 22.9492C63.6393 21.6341 63.418 20.2083 63.418 18.6719ZM69.043 18.2617V18.6719C69.043 19.5573 69.1211 20.3841 69.2773 21.1523C69.4336 21.9206 69.681 22.5977 70.0195 23.1836C70.3711 23.7565 70.8268 24.2057 71.3867 24.5312C71.9466 24.8568 72.6302 25.0195 73.4375 25.0195C74.2188 25.0195 74.8893 24.8568 75.4492 24.5312C76.0091 24.2057 76.4583 23.7565 76.7969 23.1836C77.1354 22.5977 77.3828 21.9206 77.5391 21.1523C77.7083 20.3841 77.793 19.5573 77.793 18.6719V18.2617C77.793 17.4023 77.7083 16.5951 77.5391 15.8398C77.3828 15.0716 77.1289 14.3945 76.7773 13.8086C76.4388 13.2096 75.9896 12.7409 75.4297 12.4023C74.8698 12.0638 74.1927 11.8945 73.3984 11.8945C72.6042 11.8945 71.9271 12.0638 71.3672 12.4023C70.8203 12.7409 70.3711 13.2096 70.0195 13.8086C69.681 14.3945 69.4336 15.0716 69.2773 15.8398C69.1211 16.5951 69.043 17.4023 69.043 18.2617Z" fill="#0D2017"/>
<path d="M87.168 26.3086C87.168 25.4753 87.4544 24.7786 88.0273 24.2188C88.6133 23.6589 89.388 23.3789 90.3516 23.3789C91.3151 23.3789 92.0833 23.6589 92.6562 24.2188C93.2422 24.7786 93.5352 25.4753 93.5352 26.3086C93.5352 27.1419 93.2422 27.8385 92.6562 28.3984C92.0833 28.9583 91.3151 29.2383 90.3516 29.2383C89.388 29.2383 88.6133 28.9583 88.0273 28.3984C87.4544 27.8385 87.168 27.1419 87.168 26.3086Z" fill="#0D2017"/>
</svg>
